<svg xmlns="http://www.w3.org/2000/svg" viewBox="0 0 24 24" width="96" height="96" color="#ffffff"><g fill="#ffffff"><path fill-rule="evenodd" d="M12 5.333c4.424 0 6.667 2.243 6.667 6.667 0 4.424-2.243 6.667-6.667 6.667-4.424 0-6.667-2.243-6.667-6.667 0-4.424 2.243-6.667 6.667-6.667ZM12 4c-5.138 0-8 2.862-8 8 0 5.137 2.862 8 8 8 5.137 0 8-2.863 8-8 0-5.138-2.863-8-8-8ZM7.934 14.207a37.352 37.352 0 0 0-.492 2.351 37.42 37.42 0 0 0 2.35-.492 42.159 42.159 0 0 0 2.568-.71c.784-.244 1.53-.502 2.228-.768.266-.698.525-1.444.768-2.228a41.737 41.737 0 0 0 .71-2.567c.197-.815.361-1.603.492-2.351a37.34 37.34 0 0 0-2.35.492 41.304 41.304 0 0 0-2.568.71c-.784.243-1.53.502-2.228.768a37.732 37.732 0 0 0-.768 2.228 42.233 42.233 0 0 0-.71 2.567Zm1.382.477.032-.134a40.45 40.45 0 0 1 1.196-4.006 37.19 37.19 0 0 1 2.762-.873c.42-.117.835-.224 1.244-.323l.134-.032-.005.023-.027.111a40.528 40.528 0 0 1-.685 2.478 37.98 37.98 0 0 1-.51 1.528 37.19 37.19 0 0 1-2.763.873 40.524 40.524 0 0 1-1.378.355ZM12 11.273h-.021c-.448 0-.714.273-.706.727-.008.454.257.727.706.727h.041c.449 0 .714-.273.706-.727.008-.454-.257-.727-.706-.727H12Z" clip-rule="evenodd"></path></g></svg>